<?xml version="1.0" encoding="UTF-8"?>
<svg id="Layer_2" data-name="Layer 2" xmlns="http://www.w3.org/2000/svg" viewBox="0 0 408.6 317.12">
  <defs>
    <style>
      .cls-1 {
        fill: #2153b8;
      }

      .cls-2 {
        fill: #ffbb1f;
      }
    </style>
  </defs>
  <g id="Layer_2-2" data-name="Layer 2">
    <g>
      <path class="cls-1" d="m145.08,53.37c8.28-9.56,15.43-20.47,25.05-28.4,54.38-44.8,132.72-27.22,163.92,35.91,2.3,4.66,6.49,9.49,11.02,11.73,47.7,23.52,71.28,68.92,61.26,119.11-9.38,46.89-49.77,80.9-101,83.52-20.21,1.04-40.74.91-60.83-1.36-59.12-6.67-98.18-54.91-93.89-114.24.97-13.4,9.95-22.78,21.12-22.06,11.14.72,18.86,9.4,17.26,23.45-4.39,38.75,25.21,78.33,76.35,75.91,16.21-.77,32.66.35,48.61-1.99,31.83-4.69,54.82-31.49,56.08-62.89,1.23-30.69-20.45-59.7-51.58-66.75-10.34-2.35-13.83-7.07-16.27-16.83-10.35-41.4-57.38-62.17-94.75-41.62-10.16,5.58-19.78,7.99-31.06,7.51-9.59-.4-19.24.85-28.88,1.34-.81-.78-1.61-1.56-2.42-2.33Z"/>
      <path class="cls-2" d="m197.29,271.45c-65.04,17.88-131.01-36.77-128.15-104.88,2.35-56.01,45-99.85,99.66-102.39,54.77-2.54,102.1,36.5,110.08,91.54,1.44,9.89.96,20.36-.48,30.3-1.83,12.75-10.53,18.54-22.4,16.97-10.35-1.36-16.27-8.34-15.33-21.03,1.82-24.52-3.62-46.25-22.94-62.52-21.57-18.17-46.14-21.97-71.71-9.92-24.5,11.55-37.94,31.86-38.16,59.04-.24,28.06,13.23,48.35,38.26,61.66,8.95,4.75,16.61,12.01,24.57,18.49,8.74,7.12,17.17,14.63,26.61,22.73Z"/>
      <path class="cls-2" d="m24.28,163.68c-5.63,0-11.39.69-16.86-.29-2.74-.49-4.98-3.99-7.42-6.13,2.03-2.2,3.99-6.21,6.13-6.3,12.41-.62,24.89-.69,37.28.03,2.17.13,4.08,4.8,6.09,7.39-2.36,1.77-4.58,4.74-7.13,5.06-5.93.77-12.04.24-18.09.24Z"/>
      <path class="cls-2" d="m77.47,317.12c-1.58-3.96-4.98-8.34-3.91-10.47,5.82-11.55,12.56-22.65,19.53-33.58.99-1.55,5.54-2.33,7.4-1.4,1.79.89,3.8,5.26,3.03,6.75-6.09,11.85-12.76,23.4-19.46,34.92-.69,1.18-2.68,1.6-6.59,3.78Z"/>
      <path class="cls-2" d="m126.8,48.41c-1.82,3.03-2.6,6.09-4.24,6.65-2.22.75-6.54.49-7.45-.93-7.12-11.15-13.83-22.56-20.1-34.19-.89-1.68.53-5.9,2.22-7.23,1.55-1.21,6.41-1.05,7.26.21,7.77,11.6,14.95,23.58,22.32,35.48Z"/>
      <path class="cls-2" d="m60.72,221.47c-.08,9.41-36.01,30.52-40.73,26.31-1.85-1.63-1.77-9.24-.03-10.43,9.99-6.84,20.53-12.99,31.38-18.38,2.38-1.16,6.76,1.74,9.38,2.5Z"/>
      <path class="cls-2" d="m74.88,96.14c-4.44,1.12-8.87,3.83-11.36,2.58-10.83-5.36-21.25-11.63-31.38-18.23-1.8-1.16-2.6-5.76-1.9-8.22.43-1.53,5.36-3.54,6.88-2.73,11.71,6.22,23.1,13.03,34.48,19.86,1.12.7,1.4,2.76,3.29,6.73Z"/>
    </g>
  </g>
</svg>