<?xml version="1.0" encoding="UTF-8"?>
<svg id="Layer_2" data-name="Layer 2" xmlns="http://www.w3.org/2000/svg" viewBox="0 0 1694.72 317.12">
  <defs>
    <style>
      .cls-1 {
        fill: #2153b8;
      }

      .cls-2 {
        fill: #ffbb1f;
      }
    </style>
  </defs>
  <g id="Layer_2-2" data-name="Layer 2">
    <g>
      <path class="cls-1" d="m145.08,53.37c8.28-9.56,15.43-20.47,25.05-28.4,54.38-44.8,132.72-27.22,163.92,35.91,2.3,4.66,6.49,9.49,11.02,11.73,47.7,23.52,71.28,68.92,61.26,119.11-9.38,46.89-49.77,80.9-101,83.52-20.21,1.04-40.74.91-60.83-1.36-59.12-6.67-98.18-54.91-93.89-114.24.97-13.4,9.95-22.78,21.12-22.06,11.14.72,18.86,9.4,17.26,23.45-4.39,38.75,25.21,78.33,76.35,75.91,16.21-.77,32.66.35,48.61-1.99,31.83-4.69,54.82-31.49,56.08-62.89,1.23-30.69-20.45-59.7-51.58-66.75-10.34-2.35-13.83-7.07-16.27-16.83-10.35-41.4-57.38-62.17-94.75-41.62-10.16,5.58-19.78,7.99-31.06,7.51-9.59-.4-19.24.85-28.88,1.34-.81-.78-1.61-1.56-2.42-2.33Z"/>
      <path class="cls-2" d="m197.29,271.45c-65.04,17.88-131.01-36.77-128.15-104.88,2.35-56.01,45-99.85,99.66-102.39,54.77-2.54,102.1,36.5,110.08,91.54,1.44,9.89.96,20.36-.48,30.3-1.83,12.75-10.53,18.54-22.4,16.97-10.35-1.36-16.27-8.34-15.33-21.03,1.82-24.52-3.62-46.25-22.94-62.52-21.57-18.17-46.14-21.97-71.71-9.92-24.5,11.55-37.94,31.86-38.16,59.04-.24,28.06,13.23,48.35,38.26,61.66,8.95,4.75,16.61,12.01,24.57,18.49,8.74,7.12,17.17,14.63,26.61,22.73Z"/>
      <path class="cls-2" d="m24.28,163.68c-5.63,0-11.39.69-16.86-.29-2.74-.49-4.98-3.99-7.42-6.13,2.03-2.2,3.99-6.21,6.13-6.3,12.41-.62,24.89-.69,37.28.03,2.17.13,4.08,4.8,6.09,7.39-2.36,1.77-4.58,4.74-7.13,5.06-5.93.77-12.04.24-18.09.24Z"/>
      <path class="cls-2" d="m77.47,317.12c-1.58-3.96-4.98-8.34-3.91-10.47,5.82-11.55,12.56-22.65,19.53-33.58.99-1.55,5.54-2.33,7.4-1.4,1.79.89,3.8,5.26,3.03,6.75-6.09,11.85-12.76,23.4-19.46,34.92-.69,1.18-2.68,1.6-6.59,3.78Z"/>
      <path class="cls-2" d="m126.8,48.41c-1.82,3.03-2.6,6.09-4.24,6.65-2.22.75-6.54.49-7.45-.93-7.12-11.15-13.83-22.56-20.1-34.19-.89-1.68.53-5.9,2.22-7.23,1.55-1.21,6.41-1.05,7.26.21,7.77,11.6,14.95,23.58,22.32,35.48Z"/>
      <path class="cls-2" d="m60.72,221.47c-.08,9.41-36.01,30.52-40.73,26.31-1.85-1.63-1.77-9.24-.03-10.43,9.99-6.84,20.53-12.99,31.38-18.38,2.38-1.16,6.76,1.74,9.38,2.5Z"/>
      <path class="cls-2" d="m74.88,96.14c-4.44,1.12-8.87,3.83-11.36,2.58-10.83-5.36-21.25-11.63-31.38-18.23-1.8-1.16-2.6-5.76-1.9-8.22.43-1.53,5.36-3.54,6.88-2.73,11.71,6.22,23.1,13.03,34.48,19.86,1.12.7,1.4,2.76,3.29,6.73Z"/>
    </g>
    <g>
      <path class="cls-2" d="m624.96,102.72c0-6.28-2.24-11.71-6.71-16.29-4.47-4.57-9.85-6.86-16.13-6.86-7.61,0-13.7,3.05-18.27,9.15v137.24c0,5.72-1.81,10.34-5.42,13.87-3.62,3.52-8.28,5.29-13.99,5.29s-10.32-1.77-13.84-5.29c-3.52-3.52-5.28-8.15-5.28-13.87v-123.23c0-6.29-2.28-11.72-6.85-16.3-4.57-4.58-9.99-6.86-16.27-6.86s-11.94,2.24-16.41,6.72c-4.47,4.48-6.71,9.96-6.71,16.44v123.23c0,5.72-1.76,10.34-5.28,13.87-3.52,3.52-8.13,5.29-13.84,5.29s-10.37-1.77-13.99-5.29c-3.62-3.52-5.42-8.15-5.42-13.87v-123.19c0-17.34,5.95-31.96,17.84-43.87,11.89-11.91,26.5-17.87,43.81-17.87,15.03,0,28.35,5.04,39.96,15.13,11.42-10.08,24.73-15.13,39.96-15.13,17.31,0,31.87,5.95,43.67,17.86,11.8,11.91,17.7,26.53,17.7,43.87v143.47c0,6.48,2.23,11.95,6.71,16.43,4.47,4.48,9.94,6.72,16.41,6.72h1.14c5.71,0,10.37,1.81,13.99,5.42,3.61,3.61,5.42,8.28,5.42,13.99s-1.81,10.32-5.42,13.84c-3.62,3.52-8.28,5.28-13.99,5.28h-1.14c-17.32,0-31.92-5.95-43.81-17.86-11.89-11.91-17.84-26.53-17.84-43.87V102.72Z"/>
      <path class="cls-2" d="m807.92,150.81l-36.54,35.79c-4.19,3.81-8.66,5.71-13.42,5.71-5.33,0-9.95-1.98-13.84-5.93-3.9-3.95-5.85-8.57-5.85-13.84,0-4.71,2.11-9.13,6.35-13.27l20.45-20.37c-2.47-.55-4.95-.82-7.42-.82-9.51,0-17.59,3.34-24.24,10.03-6.65,6.69-9.98,14.81-9.98,24.36s3.33,17.72,9.99,24.51c6.66,6.78,14.74,10.17,24.26,10.17h25.4c5.71,0,10.32,1.76,13.84,5.28,3.52,3.52,5.28,8.13,5.28,13.84s-1.76,10.37-5.28,13.99c-3.52,3.61-8.13,5.42-13.84,5.42h-25.4c-20.55,0-37.82-7.05-51.81-21.16-13.99-14.11-20.98-31.46-20.98-52.05s6.99-37.9,20.98-51.91c13.99-14.01,31.25-21.02,51.81-21.02s38.34,7.45,52.8,22.33c3.8,4.01,5.71,8.4,5.71,13.17,0,6.3-2.76,11.55-8.28,15.75Z"/>
      <path class="cls-2" d="m960.33,183.47c0,17.32-5.9,31.92-17.7,43.81-11.8,11.89-26.36,17.84-43.67,17.84s-32.16-5.9-43.96-17.7c-11.8-11.8-17.7-26.45-17.7-43.96v-98.19c0-5.71,1.76-10.37,5.28-13.99,3.52-3.61,8.13-5.42,13.84-5.42s10.37,1.81,13.99,5.42c3.61,3.62,5.42,8.28,5.42,13.99v15.13h65.36c5.71,0,10.32,1.76,13.84,5.28,3.52,3.52,5.28,8.13,5.28,13.84,0,12.94-6.38,19.41-19.12,19.41h-65.36v44.53c0,6.47,2.23,11.94,6.71,16.41,4.47,4.47,9.94,6.71,16.41,6.71s11.89-2.23,16.27-6.71c4.38-4.47,6.56-9.94,6.56-16.41v-2.57c0-5.52,1.86-10.08,5.57-13.7,3.71-3.61,8.32-5.42,13.84-5.42s10.08,1.81,13.7,5.42c3.61,3.62,5.42,8.18,5.42,13.7v2.57Z"/>
      <path class="cls-2" d="m1129.3,307.92h-1.14c-17.51,0-32.16-5.91-43.96-17.72-11.8-11.81-17.7-26.48-17.7-44.01V102.72c0-6.28-2.25-11.71-6.75-16.29-4.5-4.57-9.91-6.86-16.22-6.86s-12.01,2.24-16.51,6.72-6.75,9.96-6.75,16.44v123.23c0,5.72-1.81,10.34-5.42,13.87-3.62,3.52-8.28,5.29-13.99,5.29s-10.33-1.77-13.84-5.29-5.28-8.15-5.28-13.87v-123.19c0-17.34,5.96-31.96,17.88-43.87,11.92-11.91,26.56-17.87,43.92-17.87,16.21,0,30.51,5.67,42.91,17,12.4,11.34,18.6,25.1,18.6,41.29v146.9c0,6.48,2.23,11.95,6.71,16.43,4.47,4.48,9.94,6.72,16.41,6.72h1.14c5.71,0,10.37,1.81,13.99,5.42,3.61,3.61,5.42,8.28,5.42,13.99s-1.81,10.32-5.42,13.84c-3.62,3.52-8.28,5.28-13.99,5.28Z"/>
      <path class="cls-2" d="m1198.94,99.55c20.55,0,37.86,7.01,51.95,21.02,14.08,14.01,21.12,31.32,21.12,51.91s-7.04,37.94-21.12,52.05c-14.08,14.11-31.4,21.16-51.95,21.16s-37.82-7.05-51.81-21.16c-13.99-14.11-20.98-31.46-20.98-52.05s6.99-37.9,20.98-51.91c13.99-14.01,31.25-21.02,51.81-21.02Zm0,38.53c-9.52,0-17.6,3.34-24.26,10.03-6.66,6.69-9.99,14.81-9.99,24.36s3.33,17.72,9.99,24.51c6.66,6.78,14.74,10.17,24.26,10.17s17.65-3.39,24.4-10.17c6.75-6.78,10.13-14.95,10.13-24.51s-3.38-17.67-10.13-24.36c-6.76-6.69-14.89-10.03-24.4-10.03Z"/>
      <path class="cls-2" d="m1293.42,225.97v-124.62c0-16.96,5.8-31.25,17.41-42.87,11.6-11.62,25.88-17.44,42.81-17.44s31.25,5.82,42.96,17.44c11.7,11.62,17.55,25.92,17.55,42.87s-5.62,30.39-16.84,42.02c11.23,11.44,16.84,25.25,16.84,41.45s-5.85,31.25-17.55,42.88c-11.7,11.62-26.02,17.43-42.96,17.43-5.52,0-10.09-1.81-13.7-5.43-3.62-3.62-5.42-8.19-5.42-13.72s1.81-10.39,5.42-14.01c3.61-3.62,8.32-5.43,14.13-5.43s10.85-2.14,15.13-6.43,6.42-9.39,6.42-15.3c0-6.29-2.38-11.53-7.14-15.73-4.76-4.19-10.37-6.67-16.84-7.43-5.33-.57-9.85-2.62-13.56-6.15-3.71-3.52-5.57-7.86-5.57-13.01,0-5.72,2-10.29,5.99-13.72,4-3.43,9.04-5.24,15.13-5.43,6.09-.19,11.27-2.38,15.56-6.57s6.42-9.34,6.42-15.44-2.14-11.24-6.42-15.44c-4.28-4.19-9.47-6.29-15.56-6.29s-10.99,2.15-15.27,6.44c-4.28,4.29-6.42,9.39-6.42,15.29v124.67c0,5.72-1.76,10.34-5.28,13.87-3.52,3.52-8.13,5.29-13.84,5.29s-10.37-1.77-13.99-5.29c-3.62-3.52-5.42-8.15-5.42-13.87Z"/>
      <path class="cls-2" d="m1471.1,45.75c4.66,4.67,6.99,10.23,6.99,16.7s-2.33,12.04-6.99,16.7c-4.67,4.67-10.23,6.99-16.7,6.99s-12.04-2.33-16.7-6.99c-4.67-4.66-6.99-10.23-6.99-16.7s2.33-12.03,6.99-16.7c4.66-4.66,10.23-6.99,16.7-6.99s12.03,2.33,16.7,6.99Zm2.71,72.96c0-12.77-6.47-19.16-19.41-19.16-5.71,0-10.33,1.77-13.84,5.29-3.52,3.53-5.28,8.15-5.28,13.87v107.25c0,5.72,1.76,10.34,5.28,13.87,3.52,3.52,8.13,5.29,13.84,5.29s10.37-1.77,13.99-5.29c3.61-3.53,5.42-8.15,5.42-13.87v-107.25Z"/>
      <path class="cls-2" d="m1675.31,307.92h-1.71c-17.32,0-31.92-5.95-43.81-17.84s-17.84-26.5-17.84-43.81v-91.91h-78.21v71.64c0,5.71-1.81,10.32-5.42,13.84-3.62,3.52-8.28,5.28-13.99,5.28s-10.33-1.77-13.84-5.29-5.28-8.15-5.28-13.87V60.19c0-5.72,1.76-10.34,5.28-13.86,3.52-3.52,8.13-5.29,13.84-5.29s10.37,1.77,13.99,5.3c3.61,3.53,5.42,8.17,5.42,13.89v55.59h78.21v-55.59c0-5.73,1.76-10.36,5.28-13.89,3.52-3.53,8.13-5.3,13.84-5.3s10.37,1.77,13.99,5.29c3.61,3.52,5.42,8.14,5.42,13.86v186.05c0,6.48,2.23,11.95,6.71,16.43,4.47,4.48,9.94,6.72,16.41,6.72h1.71c5.71,0,10.37,1.81,13.99,5.42,3.61,3.61,5.42,8.28,5.42,13.99s-1.81,10.32-5.42,13.84c-3.62,3.52-8.28,5.28-13.99,5.28Z"/>
    </g>
  </g>
</svg>